Coordinates
version=1
nRows=22
nColumns=24
inDegrees=yes

Units are S.I. units (second, meters, Newtons, ...)
Angles are in degrees.

endheader
time	pelvis_tilt	pelvis_list	pelvis_rotation	pelvis_tx	pelvis_ty	pelvis_tz	hip_flexion_r	hip_adduction_r	hip_rotation_r	knee_angle_r	ankle_angle_r	subtalar_angle_r	mtp_angle_r	hip_flexion_l	hip_adduction_l	hip_rotation_l	knee_angle_l	ankle_angle_l	subtalar_angle_l	mtp_angle_l	lumbar_extension	lumbar_bending	lumbar_rotation
      0.66683333	     -0.17677838	     -1.06567182	     -3.44635174	     -0.47816298	      1.06657810	      0.34484504	     11.96717265	      5.17739219	     -4.07167604	    -16.69275734	      6.40141690	     -2.30668408	      0.31607250	     16.38550982	     -2.30143198	     -3.49496524	    -68.53800057	      8.23726924	      3.14641148	      1.42361906	      2.96137097	      4.75122865	     -0.68488823
      0.67100000	     -0.12748800	     -1.04148716	     -3.42570207	     -0.47313100	      1.06728310	      0.34527344	     11.56054487	      5.16527209	     -4.00991801	    -16.59590612	      6.54137082	     -2.25332766	      0.31238396	     16.99369635	     -2.26217243	     -3.31781068	    -68.69260141	      8.56564390	      2.79997487	      1.40849698	      2.89672828	      4.65482120	     -0.62192960
      0.67516667	     -0.10527026	     -0.98969446	     -3.42007407	     -0.46786169	      1.06799778	      0.34559186	     11.17030951	      5.10914419	     -4.03508436	    -16.48469762	      6.73619968	     -2.21605388	      0.30559298	     17.58305974	     -2.17860119	     -3.17684267	    -68.71265581	      8.99889470	      2.30433842	      1.38465155	      2.83222932	      4.61067775	     -0.55257148
      0.67933333	     -0.07459329	     -0.95091329	     -3.40797200	     -0.46275972	      1.06865253	      0.34589670	     10.78409187	      5.06648540	     -4.01864183	    -16.39273496	      6.90967756	     -2.15422152	      0.29686541	     18.17223731	     -2.10612822	     -3.02670135	    -68.69102225	      9.33865812	      1.82841269	      1.35372767	      2.78293732	      4.55650043	     -0.47929436
      0.68350000	     -0.04049215	     -0.93252142	     -3.38591882	     -0.45762401	      1.06929478	      0.34633513	     10.37454110	      5.06202932	     -3.95979882	    -16.25415504	      7.04032925	     -2.09783005	      0.29104720	     18.74017971	     -2.07216487	     -2.88611937	    -68.58966623	      9.59913492	      1.46841773	      1.33219821	      2.72942827	      4.45858455	     -0.41853839
      0.68766667	     -0.00518359	     -0.87724525	     -3.39790039	     -0.45243099	      1.06994224	      0.34657578	      9.98011591	      4.99331947	     -3.98306223	    -16.17056399	      7.23307205	     -2.04906446	      0.27917251	     19.27272079	     -1.97757463	     -2.78278040	    -68.37682505	      9.93977493	      0.91379298	      1.29298096	      2.66927701	      4.44204479	     -0.34683913
      0.69183333	      0.03375205	     -0.87125733	     -3.37360995	     -0.44729972	      1.07053595	      0.34698802	      9.56021655	      4.99978731	     -3.92314660	    -16.02208651	      7.35366742	     -1.98880700	      0.27223719	     19.80057014	     -1.95298653	     -2.65193593	    -68.11076128	     10.14773218	      0.57574918	      1.26824647	      2.62352472	      4.35396250	     -0.28770952
      0.69600000	      0.07768664	     -0.84511636	     -3.36512695	     -0.44212238	      1.07112794	      0.34726915	      9.14122679	      4.96811740	     -3.91279899	    -15.90079434	      7.52514529	     -1.94234431	      0.26249070	     20.29411111	     -1.89277987	     -2.54716830	    -67.75165409	     10.43788674	      0.10196559	      1.23569839	      2.57209689	      4.31330392	     -0.22349812
      0.70016667	      0.09203991	     -0.79949577	     -3.37124791	     -0.43699561	      1.07163005	      0.34751704	      8.76318396	      4.91271957	     -3.86223351	    -15.78709907	      7.61260473	     -1.91228598	      0.25775877	     20.80356870	     -1.81238419	     -2.44691020	    -67.30103111	     10.57608300	     -0.11875777	      1.21905370	      2.50623940	      4.29373329	     -0.19287260
      0.70433333	      0.14152253	     -0.81063943	     -3.35096040	     -0.43177467	      1.07217101	      0.34788545	      8.32208952	      4.93398627	     -3.87004621	    -15.63168456	      7.81599719	     -1.85174353	      0.24779830	     21.25173303	     -1.80504840	     -2.37170111	    -66.79503291	     10.87285656	     -0.65136399	      1.18362337	      2.50326731	      4.23027917	     -0.11483092
      0.70850000	      0.18264479	     -0.78866237	     -3.35716302	     -0.42657953	      1.07266367	      0.34811435	      7.90366133	      4.90265212	     -3.86611116	    -15.50394250	      7.99522224	     -1.76993181	      0.23424825	     21.68276656	     -1.74945508	     -2.31296655	    -66.18414114	     11.04336935	     -1.12176795	      1.13787907	      2.44359065	      4.21920791	     -0.04045481
      0.71266667	      0.16906253	     -0.77570667	     -3.36837108	     -0.42143213	      1.07302696	      0.34834594	      7.54912748	      4.88659689	     -3.83151554	    -15.37789753	      8.05561105	     -1.74444017	      0.23012991	     22.15799055	     -1.71023055	     -2.24575136	    -65.49939668	     11.12645956	     -1.24557350	      1.12393564	      2.36340944	      4.23441367	     -0.02374944
      0.71683333	      0.22304032	     -0.78547385	     -3.35077396	     -0.41615537	      1.07348861	      0.34864616	      7.08848534	      4.90209895	     -3.81082779	    -15.19824712	      8.24346016	     -1.69132664	      0.21912037	     22.52487053	     -1.69649012	     -2.19565168	    -64.73272242	     11.33119751	     -1.65967282	      1.08671351	      2.40940037	      4.19512221	      0.05353584
      0.72100000	      0.18911569	     -0.78647308	     -3.35653986	     -0.41099431	      1.07374034	      0.34881762	      6.75023673	      4.89932697	     -3.78104452	    -15.06123205	      8.31316014	     -1.67174938	      0.21489577	     22.97663858	     -1.66689136	     -2.13919248	    -63.89456947	     11.42044436	     -1.78700193	      1.07224278	      2.31737809	      4.22872532	      0.06832400
      0.72516667	      0.26238165	     -0.77708594	     -3.39083926	     -0.40576251	      1.07417059	      0.34901742	      6.28859657	      4.88087967	     -3.77787105	    -14.92322790	      8.59549015	     -1.56073775	      0.18595415	     23.26517760	     -1.63189414	     -2.16641404	    -62.94661955	     11.53181818	     -2.43727469	      0.98245370	      2.22924113	      4.18581222	      0.21896881
      0.72933333	      0.31100578	     -0.78190717	     -3.39264335	     -0.40050696	      1.07451715	      0.34919374	      5.83774477	      4.88073028	     -3.75055872	    -14.74721610	      8.72288061	     -1.47306184	      0.14698876	     23.55945551	     -1.60353322	     -2.14360742	    -61.91960850	     11.52028613	     -2.70131485	      0.88040486	      2.17763210	      4.19911619	      0.35222782
      0.73350000	      0.25872510	     -0.82049153	     -3.36398451	     -0.39530658	      1.07462612	      0.34933771	      5.49753123	      4.92692003	     -3.70023423	    -14.57049846	      8.77303426	     -1.46615594	      0.14187270	     23.96061234	     -1.60856738	     -2.07832619	    -60.86045236	     11.60900287	     -2.74510018	      0.86636822	      2.15625524	      4.26801611	      0.35772484
      0.73766667	      0.26923419	     -0.84084045	     -3.35493605	     -0.38994490	      1.07485530	      0.34955853	      5.06740346	      4.95702188	     -3.65237505	    -14.36247159	      8.89251154	     -1.48207014	      0.12967094	     24.23556995	     -1.60398182	     -2.07126721	    -59.68679146	     11.70231136	     -2.87210836	      0.83396403	      2.26793987	      4.29806513	      0.40070848
      0.74183333	      0.28922148	     -0.84415616	     -3.39066815	     -0.38468449	      1.07504876	      0.34976643	      4.64795700	      4.96458655	     -3.55739733	    -14.19082597	      9.07368598	     -1.49864557	      0.09402527	     24.47435569	     -1.58997465	     -2.11680424	    -58.42591713	     11.68820832	     -3.12953032	      0.74395041	      2.19238975	      4.24444240	      0.51284095
      0.74600000	      0.25932890	     -0.88176901	     -3.36486203	     -0.37936937	      1.07510668	      0.34986389	      4.26721163	      5.00972590	     -3.51436329	    -13.98872367	      9.13411048	     -1.50972448	      0.08164897	     24.75301450	     -1.58853397	     -2.09390451	    -57.12082309	     11.73227547	     -3.17198117	      0.71389248	      2.25709104	      4.35309719	      0.53654506
      0.75016667	      0.17737932	     -0.92566273	     -3.33325279	     -0.37409759	      1.07502272	      0.34988399	      3.95202871	      5.05897210	     -3.46286627	    -13.80861216	      9.19680805	     -1.53029726	      0.07494237	     25.06896485	     -1.58373366	     -2.04928883	    -55.75650859	     11.78192996	     -3.20042083	      0.69657213	      2.24865815	      4.42885965	      0.54533435
      0.75433333	      0.18091264	     -0.94008896	     -3.34146059	     -0.36864667	      1.07510737	      0.35007747	      3.52279149	      5.08707994	     -3.39535796	    -13.59118821	      9.31284839	     -1.59133034	      0.06027771	     25.22824465	     -1.57565628	     -2.11120479	    -54.27381050	     11.73477783	     -3.25459263	      0.66014150	      2.40664322	      4.45323811	      0.59598509
